<mxfile host="app.diagrams.net" modified="2024-03-12T10:47:49.222Z" agent="Mozilla/5.0 (Windows NT 10.0; Win64; x64) AppleWebKit/537.36 (KHTML, like Gecko) Chrome/122.0.0.0 Safari/537.36 Edg/122.0.0.0" etag="BfqdM7Q8Gq6B-8j-3b1y" version="24.0.5" type="device">
  <diagram name="Seite-1" id="apvOrWdnh85U-YdVcC8e">
    <mxGraphModel dx="1002" dy="543" grid="1" gridSize="10" guides="1" tooltips="1" connect="1" arrows="1" fold="1" page="1" pageScale="1" pageWidth="1169" pageHeight="827" math="0" shadow="0">
      <root>
        <mxCell id="0" />
        <mxCell id="1" parent="0" />
        <mxCell id="eKKNuJVC5WugXCJl4W6h-16" style="edgeStyle=orthogonalEdgeStyle;rounded=0;orthogonalLoop=1;jettySize=auto;html=1;exitX=0;exitY=0.25;exitDx=0;exitDy=0;entryX=1;entryY=0.25;entryDx=0;entryDy=0;" parent="1" source="eKKNuJVC5WugXCJl4W6h-7" target="eKKNuJVC5WugXCJl4W6h-10" edge="1">
          <mxGeometry relative="1" as="geometry">
            <mxPoint x="374" y="276.5" as="sourcePoint" />
          </mxGeometry>
        </mxCell>
        <mxCell id="CtdCvsQSTUsW4U2CQZTk-7" style="edgeStyle=orthogonalEdgeStyle;rounded=0;orthogonalLoop=1;jettySize=auto;html=1;exitX=1;exitY=0.5;exitDx=0;exitDy=0;entryX=0;entryY=0.5;entryDx=0;entryDy=0;" edge="1" parent="1" source="eKKNuJVC5WugXCJl4W6h-7" target="CtdCvsQSTUsW4U2CQZTk-6">
          <mxGeometry relative="1" as="geometry" />
        </mxCell>
        <mxCell id="CtdCvsQSTUsW4U2CQZTk-9" style="edgeStyle=orthogonalEdgeStyle;rounded=0;orthogonalLoop=1;jettySize=auto;html=1;exitX=0.5;exitY=0;exitDx=0;exitDy=0;entryX=0.5;entryY=1;entryDx=0;entryDy=0;" edge="1" parent="1" source="eKKNuJVC5WugXCJl4W6h-7" target="CtdCvsQSTUsW4U2CQZTk-8">
          <mxGeometry relative="1" as="geometry" />
        </mxCell>
        <mxCell id="eKKNuJVC5WugXCJl4W6h-7" value="Dashboardseite" style="rounded=1;whiteSpace=wrap;html=1;" parent="1" vertex="1">
          <mxGeometry x="395" y="270" width="120" height="30" as="geometry" />
        </mxCell>
        <mxCell id="eKKNuJVC5WugXCJl4W6h-31" style="edgeStyle=orthogonalEdgeStyle;rounded=0;orthogonalLoop=1;jettySize=auto;html=1;exitX=0;exitY=0.5;exitDx=0;exitDy=0;entryX=1;entryY=0.5;entryDx=0;entryDy=0;" parent="1" source="eKKNuJVC5WugXCJl4W6h-10" target="eKKNuJVC5WugXCJl4W6h-30" edge="1">
          <mxGeometry relative="1" as="geometry" />
        </mxCell>
        <mxCell id="CtdCvsQSTUsW4U2CQZTk-3" style="edgeStyle=orthogonalEdgeStyle;rounded=0;orthogonalLoop=1;jettySize=auto;html=1;exitX=1;exitY=0.75;exitDx=0;exitDy=0;entryX=0;entryY=0.75;entryDx=0;entryDy=0;" edge="1" parent="1" source="eKKNuJVC5WugXCJl4W6h-10" target="eKKNuJVC5WugXCJl4W6h-7">
          <mxGeometry relative="1" as="geometry" />
        </mxCell>
        <mxCell id="CtdCvsQSTUsW4U2CQZTk-12" style="edgeStyle=orthogonalEdgeStyle;rounded=0;orthogonalLoop=1;jettySize=auto;html=1;exitX=0.5;exitY=0;exitDx=0;exitDy=0;entryX=0.5;entryY=1;entryDx=0;entryDy=0;" edge="1" parent="1" source="eKKNuJVC5WugXCJl4W6h-10" target="CtdCvsQSTUsW4U2CQZTk-11">
          <mxGeometry relative="1" as="geometry" />
        </mxCell>
        <mxCell id="eKKNuJVC5WugXCJl4W6h-10" value="Gewichtseintragungseite" style="rounded=1;whiteSpace=wrap;html=1;" parent="1" vertex="1">
          <mxGeometry x="121" y="270" width="139" height="30" as="geometry" />
        </mxCell>
        <mxCell id="eKKNuJVC5WugXCJl4W6h-30" value="" style="ellipse;html=1;shape=endState;fillColor=#000000;strokeColor=#000000;" parent="1" vertex="1">
          <mxGeometry x="70" y="270" width="30" height="30" as="geometry" />
        </mxCell>
        <mxCell id="eKKNuJVC5WugXCJl4W6h-38" value="callGewichtseintragung()" style="text;html=1;align=center;verticalAlign=middle;resizable=0;points=[];autosize=1;strokeColor=none;fillColor=none;" parent="1" vertex="1">
          <mxGeometry x="250" y="240" width="160" height="30" as="geometry" />
        </mxCell>
        <mxCell id="eKKNuJVC5WugXCJl4W6h-51" value="sm" style="shape=umlFrame;whiteSpace=wrap;html=1;pointerEvents=0;" parent="1" vertex="1">
          <mxGeometry x="40" y="100" width="820" height="370" as="geometry" />
        </mxCell>
        <mxCell id="CtdCvsQSTUsW4U2CQZTk-4" value="&lt;span style=&quot;color: rgb(0, 0, 0); font-family: Helvetica; font-size: 12px; font-style: normal; font-variant-ligatures: normal; font-variant-caps: normal; font-weight: 400; letter-spacing: normal; orphans: 2; text-align: center; text-indent: 0px; text-transform: none; widows: 2; word-spacing: 0px; -webkit-text-stroke-width: 0px; white-space: nowrap; background-color: rgb(251, 251, 251); text-decoration-thickness: initial; text-decoration-style: initial; text-decoration-color: initial; display: inline !important; float: none;&quot;&gt;callDashboard()&lt;/span&gt;" style="text;whiteSpace=wrap;html=1;" vertex="1" parent="1">
          <mxGeometry x="280" y="300" width="100" height="30" as="geometry" />
        </mxCell>
        <mxCell id="CtdCvsQSTUsW4U2CQZTk-6" value="" style="ellipse;html=1;shape=endState;fillColor=#000000;strokeColor=#000000;" vertex="1" parent="1">
          <mxGeometry x="540" y="270" width="30" height="30" as="geometry" />
        </mxCell>
        <mxCell id="CtdCvsQSTUsW4U2CQZTk-15" style="edgeStyle=orthogonalEdgeStyle;rounded=0;orthogonalLoop=1;jettySize=auto;html=1;exitX=0.25;exitY=1;exitDx=0;exitDy=0;entryX=0.25;entryY=0;entryDx=0;entryDy=0;" edge="1" parent="1" source="CtdCvsQSTUsW4U2CQZTk-8" target="eKKNuJVC5WugXCJl4W6h-7">
          <mxGeometry relative="1" as="geometry" />
        </mxCell>
        <mxCell id="CtdCvsQSTUsW4U2CQZTk-8" value="FÃ¼tterung gebucht" style="rounded=1;whiteSpace=wrap;html=1;" vertex="1" parent="1">
          <mxGeometry x="395" y="150" width="120" height="30" as="geometry" />
        </mxCell>
        <mxCell id="CtdCvsQSTUsW4U2CQZTk-10" value="bookWeight()" style="text;html=1;align=center;verticalAlign=middle;resizable=0;points=[];autosize=1;strokeColor=none;fillColor=none;" vertex="1" parent="1">
          <mxGeometry x="100" y="200" width="90" height="30" as="geometry" />
        </mxCell>
        <mxCell id="CtdCvsQSTUsW4U2CQZTk-14" style="edgeStyle=orthogonalEdgeStyle;rounded=0;orthogonalLoop=1;jettySize=auto;html=1;exitX=0.75;exitY=1;exitDx=0;exitDy=0;entryX=0.75;entryY=0;entryDx=0;entryDy=0;" edge="1" parent="1" source="CtdCvsQSTUsW4U2CQZTk-11" target="eKKNuJVC5WugXCJl4W6h-10">
          <mxGeometry relative="1" as="geometry" />
        </mxCell>
        <mxCell id="CtdCvsQSTUsW4U2CQZTk-11" value="Gewicht eingetragen" style="rounded=1;whiteSpace=wrap;html=1;" vertex="1" parent="1">
          <mxGeometry x="130.5" y="150" width="120" height="30" as="geometry" />
        </mxCell>
        <mxCell id="CtdCvsQSTUsW4U2CQZTk-13" value="bookFeeding()" style="text;html=1;align=center;verticalAlign=middle;resizable=0;points=[];autosize=1;strokeColor=none;fillColor=none;" vertex="1" parent="1">
          <mxGeometry x="460" y="210" width="100" height="30" as="geometry" />
        </mxCell>
      </root>
    </mxGraphModel>
  </diagram>
</mxfile>
